<svg version="1.1" xmlns="http://www.w3.org/2000/svg" xmlns:xlink="http://www.w3.org/1999/xlink" x="0px" y="0px" viewBox="0 0 1000 1000" enable-background="new 0 0 1000 1000" xml:space="preserve">
<g><g><g><path d="M953.3,10H46.7C26.4,10,10,26.4,10,46.7v906.7c0,20.3,16.4,36.7,36.7,36.7h906.7c20.3,0,36.7-16.4,36.7-36.7V46.7C990,26.4,973.6,10,953.3,10z M270.4,816.4c0,13.5-10.9,24.4-24.4,24.4h-97.9c-13.5,0-24.4-10.9-24.4-24.4V388.7c0-13.5,11-24.4,24.4-24.4h97.9c13.5,0,24.4,10.9,24.4,24.4V816.4z M270.4,264.6c0,13.5-10.9,24.4-24.4,24.4h-97.9c-13.5,0-24.4-10.9-24.4-24.4v-86.9c0-13.5,11-24.4,24.4-24.4h97.9c13.5,0,24.4,10.9,24.4,24.4V264.6z M876.4,816.4c0,13.5-11,24.4-24.4,24.4h-97.9c-13.5,0-24.4-10.9-24.4-24.4V635.8c0-59.9-3.1-98.6-9.4-116.2c-6.3-17.6-16.4-31.3-30.6-41c-14.1-9.8-31.1-14.6-50.9-14.6c-25.4,0-48.2,7-68.4,20.9c-20.2,13.9-34,32.4-41.5,55.4c-7.5,23-11.2,65.5-11.2,127.4v148.8c0,13.5-10.9,24.4-24.4,24.4h-97.9c-13.5,0-24.4-10.9-24.4-24.4V388.7c0-13.5,10.9-24.4,24.4-24.4h87.4c13.5,0,24.4,10.9,24.4,24.4v32.6c0,13.5,6.6,15.7,15.7,5.7c45.7-50.2,101.4-75.3,167.1-75.3c32.4,0,62,5.8,88.8,17.5c26.8,11.7,47.1,26.5,60.8,44.6c13.7,18.1,23.3,38.6,28.7,61.6c5.4,23,8.1,55.9,8.1,98.7L876.4,816.4L876.4,816.4z"/></g></g><g></g><g></g><g></g><g></g><g></g><g></g><g></g><g></g><g></g><g></g><g></g><g></g><g></g><g></g><g></g></g>
</svg>