<svg version="1.1" xmlns="http://www.w3.org/2000/svg" xmlns:xlink="http://www.w3.org/1999/xlink" x="0px" y="0px" viewBox="0 0 1000 1000" enable-background="new 0 0 1000 1000" xml:space="preserve">
<path d="M979.4,824.5L680.6,520.8c-14.1-14.1-36.8-14.1-50.9,0l-21.8,20l-51.6-52.2c0,0,82.5-90.6,86.5-88.7c88,39.2,150.3,21.6,221.8-48c63-63,76.3-154,43.5-225.4L784.8,247.6c-12.4,12.4-32.6,12.4-44.9,0L687.3,195c-12.4-12.4-12.4-32.6,0-45L805.2,32.9c-67.8-21.5-148-3-205.2,54.2c-93.4,89.5-79.1,153.5-46.7,224.8c1.3,3-82.8,92.8-82.8,92.8H465L194.9,132.6c0,0,11.8-35.6-8.5-56l-43.7-41.8L60,117.7l43.7,41.8c0,0,33.2,20.3,57.2,8.6l263.6,266.8l5.3,9.3L84.6,758.5l-45,45.1C0.1,843,0.1,906.9,39.6,946.3c39.4,39.3,103.2,39.3,142.7,0l45-45.2c0,0,202.6-261.8,291.2-367.4l47.6,47.9L540,611.5c-14.1,13.9-14.1,36.8,0,50.9l297,299.7c14,14.1,36.8,14.1,50.9,0l91.6-86.8C993.5,861.3,993.5,838.4,979.4,824.5z M156.3,871.2c-12.3,12.4-32.4,12.4-44.9,0c-12.4-12.3-12.4-32.4,0-44.9c12.4-12.4,32.5-12.4,44.9,0C168.7,838.7,168.7,858.9,156.3,871.2z M877.3,917.2c-6,5.9-15.7,5.9-21.6,0L589.5,637.7c-5.9-5.9-5.9-15.7,0-21.6c6-5.9,15.7-5.9,21.6,0l266.2,279.5C883.3,901.5,883.3,911.3,877.3,917.2z M932.5,862c-5.9,5.9-15.6,5.9-21.6,0L644.8,582.5c-6-6-6-15.6,0-21.6c5.9-5.9,15.6-5.9,21.5,0l266.2,279.5C938.5,846.3,938.5,855.9,932.5,862z"/>
</svg>